{
  "accessors": [
    {
      "bufferView": 2,
      "componentType": 5126,
      "count": 1648,
      "max": [
        0.9528153538703918,
        0.8080595135688782,
        0.9528154134750366
      ],
      "min": [
        -0.9528154134750366,
        -0.9999446868896484,
        -0.9528154730796814
      ],
      "type": "VEC3"
    },
    {
      "bufferView": 2,
      "byteOffset": 19776,
      "componentType": 5126,
      "count": 1648,
      "max": [
        0.9653802514076233,
        1.0,
        0.9653802514076233
      ],
      "min": [
        -0.9653802514076233,
        -1.0,
        -0.9653802514076233
      ],
      "type": "VEC3"
    },
    {
      "bufferView": 1,
      "componentType": 5126,
      "count": 1648,
      "max": [
        0.9899080395698547,
        0.4899079501628876
      ],
      "min": [
        0.01009211502969265,
        0.01009211502969265
      ],
      "type": "VEC2"
    },
    {
      "bufferView": 0,
      "componentType": 5125,
      "count": 6144,
      "type": "SCALAR"
    },
    {
      "bufferView": 2,
      "byteOffset": 39552,
      "componentType": 5126,
      "count": 5793,
      "max": [
        5.006601333618164,
        1.0289908647537231,
        0.9741400480270386
      ],
      "min": [
        -0.9410458207130432,
        -2.2456414699554443,
        -0.958333432674408
      ],
      "type": "VEC3"
    },
    {
      "bufferView": 2,
      "byteOffset": 109068,
      "componentType": 5126,
      "count": 5793,
      "max": [
        0.9999251365661621,
        0.9997866153717041,
        1.0
      ],
      "min": [
        -0.9997978210449219,
        -0.9999992847442627,
        -1.0
      ],
      "type": "VEC3"
    },
    {
      "bufferView": 1,
      "byteOffset": 13184,
      "componentType": 5126,
      "count": 5793,
      "max": [
        0.8750001192092896,
        1.0000001192092896
      ],
      "min": [
        0.125,
        0.0
      ],
      "type": "VEC2"
    },
    {
      "bufferView": 0,
      "byteOffset": 24576,
      "componentType": 5125,
      "count": 22272,
      "type": "SCALAR"
    },
    {
      "bufferView": 2,
      "byteOffset": 178584,
      "componentType": 5126,
      "count": 5793,
      "max": [
        5.006601333618164,
        1.0289908647537231,
        0.9741400480270386
      ],
      "min": [
        -0.9410458207130432,
        -2.2456414699554443,
        -0.958333432674408
      ],
      "type": "VEC3"
    },
    {
      "bufferView": 2,
      "byteOffset": 248100,
      "componentType": 5126,
      "count": 5793,
      "max": [
        0.9999251365661621,
        0.9997866153717041,
        1.0
      ],
      "min": [
        -0.9997978210449219,
        -0.9999992847442627,
        -1.0
      ],
      "type": "VEC3"
    },
    {
      "bufferView": 1,
      "byteOffset": 59528,
      "componentType": 5126,
      "count": 5793,
      "max": [
        0.8750001192092896,
        1.0000001192092896
      ],
      "min": [
        0.125,
        0.0
      ],
      "type": "VEC2"
    },
    {
      "bufferView": 0,
      "byteOffset": 113664,
      "componentType": 5125,
      "count": 22272,
      "type": "SCALAR"
    },
    {
      "bufferView": 2,
      "byteOffset": 317616,
      "componentType": 5126,
      "count": 5793,
      "max": [
        5.006601333618164,
        1.0289908647537231,
        0.9741400480270386
      ],
      "min": [
        -0.9410458207130432,
        -2.2456414699554443,
        -0.958333432674408
      ],
      "type": "VEC3"
    },
    {
      "bufferView": 2,
      "byteOffset": 387132,
      "componentType": 5126,
      "count": 5793,
      "max": [
        0.9999251365661621,
        0.9997866153717041,
        1.0
      ],
      "min": [
        -0.9997978210449219,
        -0.9999992847442627,
        -1.0
      ],
      "type": "VEC3"
    },
    {
      "bufferView": 1,
      "byteOffset": 105872,
      "componentType": 5126,
      "count": 5793,
      "max": [
        0.8750001192092896,
        1.0000001192092896
      ],
      "min": [
        0.125,
        0.0
      ],
      "type": "VEC2"
    },
    {
      "bufferView": 0,
      "byteOffset": 202752,
      "componentType": 5125,
      "count": 22272,
      "type": "SCALAR"
    },
    {
      "bufferView": 2,
      "byteOffset": 456648,
      "componentType": 5126,
      "count": 5793,
      "max": [
        5.006601333618164,
        1.0289908647537231,
        0.9741400480270386
      ],
      "min": [
        -0.9410458207130432,
        -2.2456414699554443,
        -0.958333432674408
      ],
      "type": "VEC3"
    },
    {
      "bufferView": 2,
      "byteOffset": 526164,
      "componentType": 5126,
      "count": 5793,
      "max": [
        0.9999251365661621,
        0.9997866153717041,
        1.0
      ],
      "min": [
        -0.9997978210449219,
        -0.9999992847442627,
        -1.0
      ],
      "type": "VEC3"
    },
    {
      "bufferView": 1,
      "byteOffset": 152216,
      "componentType": 5126,
      "count": 5793,
      "max": [
        0.8750001192092896,
        1.0000001192092896
      ],
      "min": [
        0.125,
        0.0
      ],
      "type": "VEC2"
    },
    {
      "bufferView": 0,
      "byteOffset": 291840,
      "componentType": 5125,
      "count": 22272,
      "type": "SCALAR"
    },
    {
      "bufferView": 2,
      "byteOffset": 595680,
      "componentType": 5126,
      "count": 20944,
      "max": [
        1.00596284866333,
        0.16410747170448303,
        1.0059623718261719
      ],
      "min": [
        -1.0059621334075928,
        -1.0008108615875244,
        -1.005962610244751
      ],
      "type": "VEC3"
    },
    {
      "bufferView": 2,
      "byteOffset": 847008,
      "componentType": 5126,
      "count": 20944,
      "max": [
        1.0,
        1.0,
        1.0
      ],
      "min": [
        -1.0,
        -1.0,
        -1.0
      ],
      "type": "VEC3"
    },
    {
      "bufferView": 1,
      "byteOffset": 198560,
      "componentType": 5126,
      "count": 20944,
      "max": [
        1.0000001192092896,
        1.0000001192092896
      ],
      "min": [
        -0.04087412729859352,
        0.010000006295740604
      ],
      "type": "VEC2"
    },
    {
      "bufferView": 0,
      "byteOffset": 380928,
      "componentType": 5125,
      "count": 108288,
      "type": "SCALAR"
    },
    {
      "bufferView": 2,
      "byteOffset": 1098336,
      "componentType": 5126,
      "count": 1219,
      "max": [
        0.8045258522033691,
        -0.8986443877220154,
        0.8045257925987244
      ],
      "min": [
        -0.8045257925987244,
        -0.898645281791687,
        -0.8045258522033691
      ],
      "type": "VEC3"
    },
    {
      "bufferView": 2,
      "byteOffset": 1112964,
      "componentType": 5126,
      "count": 1219,
      "max": [
        0.7071067690849304,
        -0.7070684432983398,
        0.7071067690849304
      ],
      "min": [
        -0.7070762515068054,
        -1.0,
        -0.7070915102958679
      ],
      "type": "VEC3"
    },
    {
      "bufferView": 1,
      "byteOffset": 366112,
      "componentType": 5126,
      "count": 1219,
      "max": [
        0.7983756065368652,
        0.5000002980232239
      ],
      "min": [
        0.17410042881965637,
        0.4999999403953552
      ],
      "type": "VEC2"
    },
    {
      "bufferView": 0,
      "byteOffset": 814080,
      "componentType": 5125,
      "count": 3840,
      "type": "SCALAR"
    },
    {
      "bufferView": 2,
      "byteOffset": 1127592,
      "componentType": 5126,
      "count": 498,
      "max": [
        0.5665614008903503,
        0.5463037490844727,
        0.5665614008903503
      ],
      "min": [
        -0.5665614008903503,
        -0.5463037490844727,
        -0.5665614008903503
      ],
      "type": "VEC3"
    },
    {
      "bufferView": 2,
      "byteOffset": 1133568,
      "componentType": 5126,
      "count": 498,
      "max": [
        0.9994516372680664,
        0.997772216796875,
        0.9994516372680664
      ],
      "min": [
        -0.9994516372680664,
        -0.7221192717552185,
        -0.9994516372680664
      ],
      "type": "VEC3"
    },
    {
      "bufferView": 1,
      "byteOffset": 375864,
      "componentType": 5126,
      "count": 498,
      "max": [
        1.0,
        1.0
      ],
      "min": [
        0.0,
        0.01000000536441803
      ],
      "type": "VEC2"
    },
    {
      "bufferView": 0,
      "byteOffset": 829440,
      "componentType": 5125,
      "count": 1716,
      "type": "SCALAR"
    },
    {
      "bufferView": 2,
      "byteOffset": 1139544,
      "componentType": 5126,
      "count": 592,
      "max": [
        0.5238298773765564,
        2.0670113563537598,
        0.5238299369812012
      ],
      "min": [
        -0.5238296389579773,
        -2.0670113563537598,
        -0.5238297581672668
      ],
      "type": "VEC3"
    },
    {
      "bufferView": 2,
      "byteOffset": 1146648,
      "componentType": 5126,
      "count": 592,
      "max": [
        0.9999964237213135,
        1.0,
        0.9999964237213135
      ],
      "min": [
        -0.9999964237213135,
        -1.0,
        -0.9999964237213135
      ],
      "type": "VEC3"
    },
    {
      "bufferView": 1,
      "byteOffset": 379848,
      "componentType": 5126,
      "count": 592,
      "max": [
        1.000000238418579,
        1.0
      ],
      "min": [
        0.0,
        0.0
      ],
      "type": "VEC2"
    },
    {
      "bufferView": 0,
      "byteOffset": 836304,
      "componentType": 5125,
      "count": 2880,
      "type": "SCALAR"
    },
    {
      "bufferView": 2,
      "byteOffset": 1153752,
      "componentType": 5126,
      "count": 66,
      "max": [
        0.5238298773765564,
        0.15534335374832153,
        0.5238299369812012
      ],
      "min": [
        -0.5238296389579773,
        -0.049044232815504074,
        -0.5238297581672668
      ],
      "type": "VEC3"
    },
    {
      "bufferView": 2,
      "byteOffset": 1154544,
      "componentType": 5126,
      "count": 66,
      "max": [
        0.9999964237213135,
        0.01956312358379364,
        0.9999964237213135
      ],
      "min": [
        -0.9999964237213135,
        -0.002685708226636052,
        -0.9999964237213135
      ],
      "type": "VEC3"
    },
    {
      "bufferView": 1,
      "byteOffset": 384584,
      "componentType": 5126,
      "count": 66,
      "max": [
        1.0,
        0.5240765810012817
      ],
      "min": [
        0.0,
        0.49239861965179443
      ],
      "type": "VEC2"
    },
    {
      "bufferView": 0,
      "byteOffset": 847824,
      "componentType": 5125,
      "count": 192,
      "type": "SCALAR"
    }
  ],
  "asset": {
    "extras": {
      "author": "Lou.Ky (https://sketchfab.com/Lou.Ky)",
      "license": "CC-BY-4.0 (http://creativecommons.org/licenses/by/4.0/)",
      "source": "https://sketchfab.com/3d-models/rocket-099d9ef43a77405e930ff52169b66d04",
      "title": "Rocket"
    },
    "generator": "Sketchfab-12.66.0",
    "version": "2.0"
  },
  "bufferViews": [
    {
      "buffer": 0,
      "byteLength": 848592,
      "name": "floatBufferViews",
      "target": 34963
    },
    {
      "buffer": 0,
      "byteLength": 385112,
      "byteOffset": 848592,
      "byteStride": 8,
      "name": "floatBufferViews",
      "target": 34962
    },
    {
      "buffer": 0,
      "byteLength": 1155336,
      "byteOffset": 1233704,
      "byteStride": 12,
      "name": "floatBufferViews",
      "target": 34962
    }
  ],
  "buffers": [
    {
      "byteLength": 2389040,
      "uri": "scene.bin"
    }
  ],
  "materials": [
    {
      "doubleSided": true,
      "name": "tete",
      "pbrMetallicRoughness": {
        "baseColorFactor": [
          0.571125,
          0.00749903,
          0.00749903,
          1.0
        ],
        "roughnessFactor": 0.295455
      }
    },
    {
      "doubleSided": true,
      "name": "body",
      "pbrMetallicRoughness": {
        "baseColorFactor": [
          0.617207,
          0.597202,
          0.564712,
          1.0
        ],
        "metallicFactor": 0.0
      }
    },
    {
      "doubleSided": true,
      "name": "glasss",
      "pbrMetallicRoughness": {
        "baseColorFactor": [
          0.0,
          0.296138,
          0.686685,
          1.0
        ],
        "metallicFactor": 0.913636,
        "roughnessFactor": 0.15
      }
    }
  ],
  "meshes": [
    {
      "name": "Object_0",
      "primitives": [
        {
          "attributes": {
            "NORMAL": 1,
            "POSITION": 0,
            "TEXCOORD_0": 2
          },
          "indices": 3,
          "material": 0,
          "mode": 4
        }
      ]
    },
    {
      "name": "Object_1",
      "primitives": [
        {
          "attributes": {
            "NORMAL": 5,
            "POSITION": 4,
            "TEXCOORD_0": 6
          },
          "indices": 7,
          "material": 1,
          "mode": 4
        }
      ]
    },
    {
      "name": "Object_2",
      "primitives": [
        {
          "attributes": {
            "NORMAL": 9,
            "POSITION": 8,
            "TEXCOORD_0": 10
          },
          "indices": 11,
          "material": 1,
          "mode": 4
        }
      ]
    },
    {
      "name": "Object_3",
      "primitives": [
        {
          "attributes": {
            "NORMAL": 13,
            "POSITION": 12,
            "TEXCOORD_0": 14
          },
          "indices": 15,
          "material": 1,
          "mode": 4
        }
      ]
    },
    {
      "name": "Object_4",
      "primitives": [
        {
          "attributes": {
            "NORMAL": 17,
            "POSITION": 16,
            "TEXCOORD_0": 18
          },
          "indices": 19,
          "material": 1,
          "mode": 4
        }
      ]
    },
    {
      "name": "Object_5",
      "primitives": [
        {
          "attributes": {
            "NORMAL": 21,
            "POSITION": 20,
            "TEXCOORD_0": 22
          },
          "indices": 23,
          "material": 1,
          "mode": 4
        }
      ]
    },
    {
      "name": "Object_6",
      "primitives": [
        {
          "attributes": {
            "NORMAL": 25,
            "POSITION": 24,
            "TEXCOORD_0": 26
          },
          "indices": 27,
          "material": 2,
          "mode": 4
        }
      ]
    },
    {
      "name": "Object_7",
      "primitives": [
        {
          "attributes": {
            "NORMAL": 29,
            "POSITION": 28,
            "TEXCOORD_0": 30
          },
          "indices": 31,
          "material": 1,
          "mode": 4
        }
      ]
    },
    {
      "name": "Object_8",
      "primitives": [
        {
          "attributes": {
            "NORMAL": 33,
            "POSITION": 32,
            "TEXCOORD_0": 34
          },
          "indices": 35,
          "material": 1,
          "mode": 4
        }
      ]
    },
    {
      "name": "Object_9",
      "primitives": [
        {
          "attributes": {
            "NORMAL": 37,
            "POSITION": 36,
            "TEXCOORD_0": 38
          },
          "indices": 39,
          "material": 0,
          "mode": 4
        }
      ]
    }
  ],
  "nodes": [
    {
      "children": [
        1
      ],
      "matrix": [
        1.0,
        0.0,
        0.0,
        0.0,
        0.0,
        2.220446049250313e-16,
        -1.0,
        0.0,
        0.0,
        1.0,
        2.220446049250313e-16,
        0.0,
        0.0,
        0.0,
        0.0,
        1.0
      ],
      "name": "Sketchfab_model"
    },
    {
      "children": [
        2
      ],
      "name": "root"
    },
    {
      "children": [
        3
      ],
      "matrix": [
        1.0,
        0.0,
        0.0,
        0.0,
        0.0,
        2.220446049250313e-16,
        1.0,
        0.0,
        0.0,
        -1.0,
        2.220446049250313e-16,
        0.0,
        0.0,
        0.0,
        0.0,
        1.0
      ],
      "name": "GLTF_SceneRootNode"
    },
    {
      "children": [
        4,
        6,
        8,
        10,
        12,
        14,
        17,
        19
      ],
      "matrix": [
        0.9998976208907895,
        0.014309008943288213,
        0.0,
        0.0,
        -0.014309008943288213,
        0.9998976208907895,
        0.0,
        0.0,
        0.0,
        0.0,
        1.0,
        0.0,
        -0.4411673843860626,
        10.959466934204102,
        0.0,
        1.0
      ],
      "name": "Empty.001_11"
    },
    {
      "children": [
        5
      ],
      "matrix": [
        0.33187976479530334,
        0.0,
        0.0,
        0.0,
        0.0,
        0.33187976479530334,
        0.0,
        0.0,
        0.0,
        0.0,
        0.33187973499298096,
        0.0,
        0.014097064733505249,
        -0.3937060534954071,
        0.0,
        1.0
      ],
      "name": "Cone_3"
    },
    {
      "mesh": 0,
      "name": "Object_5"
    },
    {
      "children": [
        7
      ],
      "matrix": [
        0.0983642670540193,
        -0.010014949992045429,
        -0.0,
        0.0,
        0.0390534932127451,
        0.3835733816765886,
        0.0,
        0.0,
        0.0,
        -0.0,
        0.08421798050403595,
        0.0,
        0.4176185131072998,
        -4.20391321182251,
        0.0,
        1.0
      ],
      "name": "Cube_4"
    },
    {
      "mesh": 1,
      "name": "Object_7"
    },
    {
      "children": [
        9
      ],
      "matrix": [
        2.641514462597848e-11,
        -0.010014949047382964,
        -0.0983642596611016,
        0.0,
        -2.0286347241853736e-09,
        0.3835733817520177,
        -0.039053492471899834,
        0.0,
        0.08421798795461655,
        4.4311947110856174e-10,
        -2.249992681436882e-11,
        0.0,
        0.0,
        -4.20391321182251,
        -0.4176184833049774,
        1.0
      ],
      "name": "Cube.001_5"
    },
    {
      "mesh": 2,
      "name": "Object_9"
    },
    {
      "children": [
        11
      ],
      "matrix": [
        -0.0983642672030542,
        -0.010014948528189106,
        3.8399998375406636e-08,
        0.0,
        -0.03905348750440877,
        0.3835733822577823,
        7.603306859733616e-09,
        0.0,
        -3.2708396028473586e-08,
        -1.660808116971786e-09,
        -0.0842179805040296,
        0.0,
        -0.4176185429096222,
        -4.203913688659668,
        0.0,
        1.0
      ],
      "name": "Cube.002_6"
    },
    {
      "mesh": 3,
      "name": "Object_11"
    },
    {
      "children": [
        13
      ],
      "matrix": [
        4.980969706306612e-08,
        -0.010014945942075922,
        0.09836425997725552,
        0.0,
        2.0031782950090646e-08,
        0.3835733829849154,
        0.03905348036268829,
        0.0,
        -0.08421798795460575,
        5.560507911274362e-11,
        4.2651968813743394e-08,
        0.0,
        0.0,
        -4.20391321182251,
        0.4176184833049774,
        1.0
      ],
      "name": "Cube.003_7"
    },
    {
      "mesh": 4,
      "name": "Object_13"
    },
    {
      "children": [
        15,
        16
      ],
      "matrix": [
        1.603634697486087e-07,
        -0.3587270379066107,
        -1.069090998435336e-08,
        0.0,
        -8.762915465223866e-08,
        1.752581056033905e-08,
        -0.5880693197250298,
        0.0,
        0.3587270379066069,
        1.6036347134167676e-07,
        -5.345448779211214e-08,
        0.0,
        0.0,
        -1.8254772424697876,
        0.003925830125808716,
        1.0
      ],
      "name": "Cylinder_8"
    },
    {
      "mesh": 5,
      "name": "Object_15"
    },
    {
      "mesh": 6,
      "name": "Object_16"
    },
    {
      "children": [
        18
      ],
      "matrix": [
        1.0,
        0.0,
        0.0,
        0.0,
        0.0,
        1.0,
        0.0,
        0.0,
        0.0,
        0.0,
        1.0,
        0.0,
        0.0,
        -4.100477695465088,
        0.0,
        1.0
      ],
      "name": "Cylinder.001_9"
    },
    {
      "mesh": 7,
      "name": "Object_18"
    },
    {
      "children": [
        20,
        21
      ],
      "matrix": [
        1.0,
        0.0,
        0.0,
        0.0,
        0.0,
        1.0,
        0.0,
        0.0,
        0.0,
        0.0,
        1.0,
        0.0,
        0.014031171798706055,
        -2.4137253761291504,
        0.0,
        1.0
      ],
      "name": "Sphere_10"
    },
    {
      "mesh": 8,
      "name": "Object_20"
    },
    {
      "mesh": 9,
      "name": "Object_21"
    }
  ],
  "scene": 0,
  "scenes": [
    {
      "name": "Sketchfab_Scene",
      "nodes": [
        0
      ]
    }
  ]
}
